<?xml version="1.0" standalone="no"?>
<svg xmlns="http://www.w3.org/2000/svg" viewBox="0 0 94.488 36" width="300px"><g fill="#10e5c5" color="#10e5c5" transform="translate(0 3.9999999999999982) scale(0.2800001)"><svg width="100.0" height="100.0" x="0.0" y="0.0" viewBox="0 0 100 100"><g><path fill="currentColor" d="M89.818,8.062C85.842,0.629,76.589-2.17,69.156,1.813c-6.551,3.513-9.484,11.11-7.377,17.956L35.397,33.895   c-2.8-3.419-7-5.653-11.768-5.653c-8.435,0-15.266,6.842-15.266,15.269c0,8.435,6.831,15.273,15.266,15.273   c3.19,0,6.158-0.994,8.609-2.672l21.719,20.653c-3.685,6.01-2.81,13.973,2.497,19.032c6.109,5.812,15.77,5.564,21.584-0.545   c5.808-6.121,5.572-15.777-0.542-21.585c-5.385-5.127-13.523-5.526-19.368-1.367L36.477,51.705c1.514-2.38,2.422-5.168,2.422-8.195   c0-1.469-0.276-2.848-0.657-4.188l26.479-14.189c4.556,5.393,12.392,7.06,18.856,3.603C91.006,24.758,93.809,15.502,89.818,8.062z"></path></g></svg></g><path fill="#003e54" fill-rule="nonzero" d="M4.56 22.80Q3.41 22.80 2.64 22.20Q1.87 21.60 1.87 20.47L1.87 20.47Q1.87 19.10 2.98 18.28Q4.08 17.45 5.78 16.90L5.78 16.90L6.07 15.62Q4.85 16.94 3.19 16.94L3.19 16.94Q1.82 16.94 0.91 16.01Q0 15.07 0 13.08L0 13.08Q0 11.30 0.71 9.35Q1.42 7.39 2.82 6.04Q4.22 4.68 6.17 4.68L6.17 4.68Q7.15 4.68 7.63 5.02Q8.11 5.35 8.11 5.90L8.11 5.90L8.11 6.05L8.38 4.80L11.83 4.80L9.46 15.94Q10.61 15.55 11.30 14.78Q12 14.02 12.48 12.50L12.48 12.50L13.49 12.50Q12.84 14.64 11.74 15.64Q10.63 16.63 9.24 16.99L9.24 16.99L8.88 18.72Q8.40 21.05 7.22 21.92Q6.05 22.80 4.56 22.80L4.56 22.80ZM4.75 14.62Q5.30 14.62 5.88 14.11Q6.46 13.61 6.67 12.74L6.67 12.74L7.90 7.06Q7.90 6.77 7.66 6.47Q7.42 6.17 6.91 6.17L6.91 6.17Q5.95 6.17 5.18 7.28Q4.42 8.40 3.98 9.97Q3.55 11.54 3.55 12.74L3.55 12.74Q3.55 13.94 3.90 14.28Q4.25 14.62 4.75 14.62L4.75 14.62ZM4.01 20.93Q4.42 20.93 4.80 20.38Q5.18 19.82 5.40 18.79L5.40 18.79L5.54 18.10Q3.19 18.96 3.19 20.14L3.19 20.14Q3.19 20.45 3.41 20.69Q3.62 20.93 4.01 20.93L4.01 20.93ZM11.57 16.80L14.11 4.80L17.57 4.80L17.26 6.29Q18.07 5.57 18.73 5.18Q19.39 4.80 20.16 4.80L20.16 4.80Q20.93 4.80 21.37 5.33Q21.82 5.86 21.82 6.60L21.82 6.60Q21.82 7.30 21.36 7.82Q20.90 8.35 20.09 8.35L20.09 8.35Q19.56 8.35 19.38 8.10Q19.20 7.85 19.10 7.37L19.10 7.37Q19.03 7.06 18.96 6.91Q18.89 6.77 18.70 6.77L18.70 6.77Q18.19 6.77 17.84 6.97Q17.50 7.18 16.94 7.68L16.94 7.68L15.02 16.80L11.57 16.80ZM24.38 16.94Q23.02 16.94 22.10 16.01Q21.19 15.07 21.19 13.08L21.19 13.08Q21.19 11.30 21.90 9.35Q22.61 7.39 24.01 6.04Q25.42 4.68 27.36 4.68L27.36 4.68Q28.34 4.68 28.82 5.02Q29.30 5.35 29.30 5.90L29.30 5.90L29.30 6.07L29.57 4.80L33.02 4.80L31.30 12.96Q31.20 13.32 31.20 13.73L31.20 13.73Q31.20 14.76 32.18 14.76L32.18 14.76Q32.86 14.76 33.35 14.14Q33.84 13.51 34.13 12.50L34.13 12.50L35.14 12.50Q34.25 15.10 32.94 16.02Q31.63 16.94 30.31 16.94L30.31 16.94Q29.30 16.94 28.69 16.38Q28.08 15.82 27.96 14.74L27.96 14.74Q27.26 15.72 26.41 16.33Q25.56 16.94 24.38 16.94L24.38 16.94ZM25.94 14.62Q26.54 14.62 27.13 14.05Q27.72 13.49 27.94 12.50L27.94 12.50L29.09 7.08Q29.09 6.77 28.85 6.47Q28.61 6.17 28.10 6.17L28.10 6.17Q27.14 6.17 26.38 7.28Q25.61 8.40 25.18 9.97Q24.74 11.54 24.74 12.74L24.74 12.74Q24.74 13.94 25.09 14.28Q25.44 14.62 25.94 14.62L25.94 14.62ZM31.94 22.80L35.95 3.91L39.41 3.91L39.02 5.71Q40.22 4.68 41.83 4.68L41.83 4.68Q43.18 4.68 43.97 5.57Q44.76 6.46 44.76 8.47L44.76 8.47Q44.76 10.37 44.21 12.30Q43.66 14.23 42.34 15.59Q41.02 16.94 38.86 16.94L38.86 16.94Q37.32 16.94 36.82 16.08L36.82 16.08L35.57 21.94L31.94 22.80ZM38.11 14.86Q39.26 14.86 40.02 13.78Q40.78 12.70 41.12 11.20Q41.47 9.70 41.47 8.40L41.47 8.40Q41.47 6.41 40.27 6.41L40.27 6.41Q39.84 6.41 39.40 6.72Q38.95 7.03 38.62 7.58L38.62 7.58L37.20 14.30Q37.39 14.86 38.11 14.86L38.11 14.86ZM54.02 16.94Q52.56 16.94 51.88 16.16Q51.19 15.38 51.19 14.23L51.19 14.23Q51.19 13.73 51.31 13.09Q51.43 12.46 51.56 11.86Q51.70 11.26 51.74 11.09L51.74 11.09Q51.94 10.25 52.10 9.43Q52.27 8.62 52.27 8.11L52.27 8.11Q52.27 6.89 51.41 6.89L51.41 6.89Q50.78 6.89 50.30 7.50Q49.82 8.11 49.54 9.10L49.54 9.10L47.90 16.80L44.45 16.80L47.93 0.48L51.48 0L50.18 6.05Q51.38 4.70 52.99 4.70L52.99 4.70Q54.22 4.70 54.94 5.38Q55.66 6.05 55.66 7.42L55.66 7.42Q55.66 8.11 55.49 8.96Q55.32 9.82 55.01 11.04L55.01 11.04Q54.82 11.78 54.66 12.49Q54.50 13.20 54.50 13.61L54.50 13.61Q54.50 14.09 54.72 14.35Q54.94 14.62 55.46 14.62L55.46 14.62Q56.18 14.62 56.62 14.10Q57.05 13.58 57.48 12.50L57.48 12.50L58.49 12.50Q57.60 15.14 56.44 16.04Q55.27 16.94 54.02 16.94L54.02 16.94Z" transform="translate(36, 6.6)"></path></svg>