<?xml version="1.0" encoding="UTF-8" standalone="no"?>
<!DOCTYPE svg PUBLIC "-//W3C//DTD SVG 1.1//EN"
 "http://www.w3.org/Graphics/SVG/1.1/DTD/svg11.dtd">
<!-- Generated by graphviz version 6.0.1 (20220911.1526)
 -->
<!-- Pages: 1 -->
<svg width="259pt" height="232pt"
 viewBox="0.00 0.00 258.71 231.67" xmlns="http://www.w3.org/2000/svg" xmlns:xlink="http://www.w3.org/1999/xlink">
<g id="graph0" class="graph" transform="scale(1 1) rotate(0) translate(4 227.67)">
<polygon fill="white" stroke="none" points="-4,4 -4,-227.67 254.71,-227.67 254.71,4 -4,4"/>
<!-- munich -->
<g id="node1" class="node">
<title>munich</title>
<ellipse fill="#e5f5e0" stroke="#a1d99b" cx="121.78" cy="-18" rx="37.89" ry="18"/>
<text text-anchor="middle" x="121.78" y="-14.3" font-family="Times,serif" font-size="14.00">munich</text>
</g>
<!-- london -->
<g id="node2" class="node">
<title>london</title>
<ellipse fill="#deebf7" stroke="#9ecae1" cx="215.61" cy="-111.83" rx="35.19" ry="18"/>
<text text-anchor="middle" x="215.61" y="-108.13" font-family="Times,serif" font-size="14.00">london</text>
</g>
<!-- munich&#45;&#45;london -->
<g id="edge1" class="edge">
<title>munich&#45;&#45;london</title>
<path fill="none" stroke="black" d="M138.13,-34.34C155.35,-51.57 182.31,-78.52 199.46,-95.68"/>
<text text-anchor="middle" x="165.29" y="-68.81" font-family="Times,serif" font-size="14.00">3</text>
</g>
<!-- madrid -->
<g id="node3" class="node">
<title>madrid</title>
<ellipse fill="#fff7bc" stroke="#fec44f" cx="121.78" cy="-205.67" rx="36.29" ry="18"/>
<text text-anchor="middle" x="121.78" y="-201.97" font-family="Times,serif" font-size="14.00">madrid</text>
</g>
<!-- munich&#45;&#45;madrid -->
<g id="edge2" class="edge">
<title>munich&#45;&#45;madrid</title>
<path fill="none" stroke="black" d="M121.78,-36.34C121.78,-72.31 121.78,-151.73 121.78,-187.53"/>
<text text-anchor="middle" x="118.28" y="-115.73" font-family="Times,serif" font-size="14.00">6</text>
</g>
<!-- paris -->
<g id="node4" class="node">
<title>paris</title>
<ellipse fill="#efedf5" stroke="#bcbddc" cx="27.95" cy="-111.83" rx="27.9" ry="18"/>
<text text-anchor="middle" x="27.95" y="-108.13" font-family="Times,serif" font-size="14.00">paris</text>
</g>
<!-- munich&#45;&#45;paris -->
<g id="edge3" class="edge">
<title>munich&#45;&#45;paris</title>
<path fill="none" stroke="black" d="M105.44,-34.34C87.9,-51.88 60.27,-79.51 43.17,-96.61"/>
<text text-anchor="middle" x="70.8" y="-69.28" font-family="Times,serif" font-size="14.00">2</text>
</g>
<!-- madrid&#45;&#45;london -->
<g id="edge6" class="edge">
<title>madrid&#45;&#45;london</title>
<path fill="none" stroke="black" d="M138.13,-189.32C155.35,-172.1 182.31,-145.14 199.46,-127.99"/>
<text text-anchor="middle" x="165.29" y="-162.46" font-family="Times,serif" font-size="14.00">5</text>
</g>
<!-- paris&#45;&#45;london -->
<g id="edge4" class="edge">
<title>paris&#45;&#45;london</title>
<path fill="none" stroke="black" d="M56.04,-111.83C89.17,-111.83 144.27,-111.83 180.27,-111.83"/>
<text text-anchor="middle" x="114.66" y="-100.63" font-family="Times,serif" font-size="14.00">2</text>
</g>
<!-- paris&#45;&#45;madrid -->
<g id="edge5" class="edge">
<title>paris&#45;&#45;madrid</title>
<path fill="none" stroke="black" d="M43.44,-127.33C60.62,-144.51 88.2,-172.08 105.63,-189.52"/>
<text text-anchor="middle" x="71.04" y="-162.22" font-family="Times,serif" font-size="14.00">4</text>
</g>
</g>
</svg>
