<?xml version="1.0" encoding="UTF-8" standalone="no"?>
<!DOCTYPE svg PUBLIC "-//W3C//DTD SVG 1.1//EN"
 "http://www.w3.org/Graphics/SVG/1.1/DTD/svg11.dtd">
<!-- Generated by graphviz version 6.0.1 (20220911.1526)
 -->
<!-- Pages: 1 -->
<svg width="117pt" height="260pt"
 viewBox="0.00 0.00 117.00 260.00" xmlns="http://www.w3.org/2000/svg" xmlns:xlink="http://www.w3.org/1999/xlink">
<g id="graph0" class="graph" transform="scale(1 1) rotate(0) translate(4 256)">
<polygon fill="white" stroke="none" points="-4,4 -4,-256 113,-256 113,4 -4,4"/>
<!-- 2 -->
<g id="node1" class="node">
<title>2</title>
<ellipse fill="#e5f5e0" stroke="#a1d99b" cx="27" cy="-162" rx="27" ry="18"/>
<text text-anchor="middle" x="27" y="-158.3" font-family="Times,serif" font-size="14.00">2</text>
</g>
<!-- 4 -->
<g id="node2" class="node">
<title>4</title>
<ellipse fill="#fff7bc" stroke="#fec44f" cx="54" cy="-18" rx="27" ry="18"/>
<text text-anchor="middle" x="54" y="-14.3" font-family="Times,serif" font-size="14.00">4</text>
</g>
<!-- 2&#45;&gt;4 -->
<g id="edge1" class="edge">
<title>2&#45;&gt;4</title>
<path fill="none" stroke="black" d="M30.26,-143.87C34.86,-119.67 43.31,-75.21 48.79,-46.39"/>
<polygon fill="black" stroke="black" points="52.3,-46.67 50.73,-36.19 45.43,-45.36 52.3,-46.67"/>
</g>
<!-- 3 -->
<g id="node3" class="node">
<title>3</title>
<ellipse fill="#efedf5" stroke="#bcbddc" cx="82" cy="-90" rx="27" ry="18"/>
<text text-anchor="middle" x="82" y="-86.3" font-family="Times,serif" font-size="14.00">3</text>
</g>
<!-- 2&#45;&gt;3 -->
<g id="edge2" class="edge">
<title>2&#45;&gt;3</title>
<path fill="none" stroke="black" d="M38.93,-145.81C46.21,-136.55 55.66,-124.52 63.85,-114.09"/>
<polygon fill="black" stroke="black" points="66.66,-116.18 70.09,-106.16 61.16,-111.86 66.66,-116.18"/>
</g>
<!-- 3&#45;&gt;4 -->
<g id="edge3" class="edge">
<title>3&#45;&gt;4</title>
<path fill="none" stroke="black" d="M75.36,-72.41C72.09,-64.22 68.06,-54.14 64.38,-44.95"/>
<polygon fill="black" stroke="black" points="67.55,-43.45 60.59,-35.47 61.05,-46.05 67.55,-43.45"/>
</g>
<!-- 1 -->
<g id="node4" class="node">
<title>1</title>
<ellipse fill="#deebf7" stroke="#9ecae1" cx="54" cy="-234" rx="27" ry="18"/>
<text text-anchor="middle" x="54" y="-230.3" font-family="Times,serif" font-size="14.00">1</text>
</g>
<!-- 1&#45;&gt;2 -->
<g id="edge5" class="edge">
<title>1&#45;&gt;2</title>
<path fill="none" stroke="black" d="M47.6,-216.41C44.49,-208.34 40.67,-198.43 37.17,-189.35"/>
<polygon fill="black" stroke="black" points="40.4,-188.03 33.54,-179.96 33.87,-190.55 40.4,-188.03"/>
</g>
<!-- 1&#45;&gt;3 -->
<g id="edge4" class="edge">
<title>1&#45;&gt;3</title>
<path fill="none" stroke="black" d="M57.38,-215.87C62.17,-191.56 70.99,-146.82 76.67,-118.01"/>
<polygon fill="black" stroke="black" points="80.11,-118.68 78.61,-108.19 73.24,-117.32 80.11,-118.68"/>
</g>
</g>
</svg>
