<?xml version="1.0" standalone="no"?>
<svg xmlns="http://www.w3.org/2000/svg" viewBox="0 0 107.209 36" width="300px" height="200px"><g fill="#f90954" color="#f90954" transform="translate(0 3.9999999999999982) scale(0.2800001)"><svg width="100.0" height="100.0" x="0.0" y="0.0" viewBox="0 0 100 100"><g><path fill="currentColor" d="M89.818,8.062C85.842,0.629,76.589-2.17,69.156,1.813c-6.551,3.513-9.484,11.11-7.377,17.956L35.397,33.895   c-2.8-3.419-7-5.653-11.768-5.653c-8.435,0-15.266,6.842-15.266,15.269c0,8.435,6.831,15.273,15.266,15.273   c3.19,0,6.158-0.994,8.609-2.672l21.719,20.653c-3.685,6.01-2.81,13.973,2.497,19.032c6.109,5.812,15.77,5.564,21.584-0.545   c5.808-6.121,5.572-15.777-0.542-21.585c-5.385-5.127-13.523-5.526-19.368-1.367L36.477,51.705c1.514-2.38,2.422-5.168,2.422-8.195   c0-1.469-0.276-2.848-0.657-4.188l26.479-14.189c4.556,5.393,12.392,7.06,18.856,3.603C91.006,24.758,93.809,15.502,89.818,8.062z"></path></g></svg></g><path fill="#092578" fill-rule="nonzero" d="M11.33 5.18L12.96 5.18L12.96 16.27Q12.96 19.49 11.39 21.04Q9.82 22.58 6.65 22.58L6.65 22.58Q4.90 22.58 3.32 22.07Q1.75 21.55 0.77 20.64L0.77 20.64L1.63 19.34Q2.54 20.16 3.85 20.62Q5.16 21.07 6.60 21.07L6.60 21.07Q9 21.07 10.13 19.96Q11.26 18.84 11.26 16.49L11.26 16.49L11.26 14.88Q10.46 16.08 9.18 16.70Q7.90 17.33 6.34 17.33L6.34 17.33Q4.56 17.33 3.11 16.55Q1.66 15.77 0.83 14.36Q0 12.96 0 11.18L0 11.18Q0 9.41 0.83 8.02Q1.66 6.62 3.10 5.86Q4.54 5.09 6.34 5.09L6.34 5.09Q7.94 5.09 9.24 5.74Q10.54 6.38 11.33 7.61L11.33 7.61L11.33 5.18ZM6.50 15.82Q7.87 15.82 8.98 15.23Q10.08 14.64 10.69 13.58Q11.30 12.53 11.30 11.18L11.30 11.18Q11.30 9.84 10.69 8.80Q10.08 7.75 8.99 7.16Q7.90 6.58 6.50 6.58L6.50 6.58Q5.14 6.58 4.04 7.15Q2.95 7.73 2.34 8.78Q1.73 9.84 1.73 11.18L1.73 11.18Q1.73 12.53 2.34 13.58Q2.95 14.64 4.04 15.23Q5.14 15.82 6.50 15.82L6.50 15.82ZM19.37 7.66Q19.97 6.38 21.16 5.74Q22.34 5.09 24.10 5.09L24.10 5.09L24.10 6.74L23.69 6.72Q21.70 6.72 20.57 7.94Q19.44 9.17 19.44 11.38L19.44 11.38L19.44 17.81L17.74 17.81L17.74 5.18L19.37 5.18L19.37 7.66ZM36.86 5.18L38.57 5.18L38.57 17.81L36.94 17.81L36.94 15.31Q36.17 16.58 34.91 17.26Q33.65 17.93 32.06 17.93L32.06 17.93Q30.29 17.93 28.85 17.11Q27.41 16.30 26.59 14.83Q25.78 13.37 25.78 11.50L25.78 11.50Q25.78 9.62 26.59 8.16Q27.41 6.70 28.85 5.89Q30.29 5.09 32.06 5.09L32.06 5.09Q33.60 5.09 34.84 5.72Q36.07 6.36 36.86 7.58L36.86 7.58L36.86 5.18ZM32.21 16.42Q33.53 16.42 34.60 15.80Q35.66 15.19 36.28 14.06Q36.89 12.94 36.89 11.50L36.89 11.50Q36.89 10.06 36.28 8.93Q35.66 7.80 34.60 7.19Q33.53 6.58 32.21 6.58L32.21 6.58Q30.86 6.58 29.80 7.19Q28.73 7.80 28.12 8.93Q27.50 10.06 27.50 11.50L27.50 11.50Q27.50 12.94 28.12 14.06Q28.73 15.19 29.80 15.80Q30.86 16.42 32.21 16.42L32.21 16.42ZM49.82 5.09Q51.60 5.09 53.04 5.89Q54.48 6.70 55.30 8.16Q56.11 9.62 56.11 11.50L56.11 11.50Q56.11 13.39 55.30 14.86Q54.48 16.32 53.05 17.12Q51.62 17.93 49.82 17.93L49.82 17.93Q48.29 17.93 47.05 17.29Q45.82 16.66 45.02 15.43L45.02 15.43L45.02 22.46L43.32 22.46L43.32 5.18L44.95 5.18L44.95 7.68Q45.72 6.43 46.98 5.76Q48.24 5.09 49.82 5.09L49.82 5.09ZM49.70 16.42Q51.02 16.42 52.10 15.80Q53.18 15.19 53.80 14.06Q54.41 12.94 54.41 11.50L54.41 11.50Q54.41 10.06 53.80 8.94Q53.18 7.82 52.10 7.20Q51.02 6.58 49.70 6.58L49.70 6.58Q48.36 6.58 47.29 7.20Q46.22 7.82 45.61 8.94Q45 10.06 45 11.50L45 11.50Q45 12.94 45.61 14.06Q46.22 15.19 47.29 15.80Q48.36 16.42 49.70 16.42L49.70 16.42ZM66.02 5.09Q68.40 5.09 69.80 6.47Q71.21 7.85 71.21 10.49L71.21 10.49L71.21 17.81L69.50 17.81L69.50 10.66Q69.50 8.69 68.52 7.66Q67.54 6.62 65.71 6.62L65.71 6.62Q63.67 6.62 62.48 7.84Q61.30 9.05 61.30 11.18L61.30 11.18L61.30 17.81L59.59 17.81L59.59 0L61.30 0L61.30 7.39Q61.99 6.29 63.22 5.69Q64.44 5.09 66.02 5.09L66.02 5.09Z" transform="translate(36, 6.708)"></path></svg>