<?xml version="1.0" encoding="UTF-8" standalone="no"?>
<svg
   xmlns:dc="http://purl.org/dc/elements/1.1/"
   xmlns:cc="http://creativecommons.org/ns#"
   xmlns:rdf="http://www.w3.org/1999/02/22-rdf-syntax-ns#"
   xmlns:svg="http://www.w3.org/2000/svg"
   xmlns="http://www.w3.org/2000/svg"
   id="svg21"
   xml:space="preserve"
   viewBox="0 0 1225 426"
   width="300px"
   version="1.1"><metadata
     id="metadata25"><rdf:RDF><cc:Work
         rdf:about=""><dc:format>image/svg+xml</dc:format><dc:type
           rdf:resource="http://purl.org/dc/dcmitype/StillImage" /></cc:Work></rdf:RDF></metadata><desc
     id="desc2">Created with Fabric.js 2.4.6</desc><defs
     id="defs4" /><g
     id="g13"
     transform="matrix(4.22,0,0,4.22,178.22,213.31)"><linearGradient
       y2="99.999817"
       x2="-0.00073640805"
       y1="4.0389135e-05"
       x1="99.99926"
       gradientUnits="userSpaceOnUse"
       id="SVGID_2559"><stop
         id="stop6"
         style="stop-color:rgb(255,0,112);stop-opacity: 1"
         offset="0%" /><stop
         id="stop8"
         style="stop-color:rgb(133,0,255);stop-opacity: 1"
         offset="100%" /></linearGradient><path
       id="path11"
       d="M 89.818,8.062 C 85.842,0.629 76.589,-2.17 69.156,1.813 62.605,5.326 59.672,12.923 61.779,19.769 L 35.397,33.895 c -2.8,-3.419 -7,-5.653 -11.768,-5.653 -8.435,0 -15.266,6.842 -15.266,15.269 0,8.435 6.831,15.273 15.266,15.273 3.19,0 6.158,-0.994 8.609,-2.672 l 21.719,20.653 c -3.685,6.01 -2.81,13.973 2.497,19.032 6.109,5.812 15.77,5.564 21.584,-0.545 C 83.846,89.131 83.61,79.475 77.496,73.667 72.111,68.54 63.973,68.141 58.128,72.3 L 36.477,51.705 c 1.514,-2.38 2.422,-5.168 2.422,-8.195 0,-1.469 -0.276,-2.848 -0.657,-4.188 L 64.721,25.133 c 4.556,5.393 12.392,7.06 18.856,3.603 7.429,-3.978 10.232,-13.234 6.241,-20.674 z"
       transform="translate(-50,-50)"
       style="opacity:1;fill:url(#SVGID_2559);fill-rule:nonzero;stroke:none;stroke-width:1;stroke-linecap:butt;stroke-linejoin:miter;stroke-miterlimit:4;stroke-dasharray:none;stroke-dashoffset:0" /></g><g
     id="g19"
     transform="translate(851.44,188.37)"><g
       id="text17"
       style="font-style:italic;font-weight:700;font-size:318px;font-family:Lato;white-space:pre;opacity:1;fill:#d600a0;fill-rule:nonzero;stroke:none;stroke-width:1;stroke-linecap:butt;stroke-linejoin:miter;stroke-miterlimit:4;stroke-dasharray:none;stroke-dashoffset:0"
       aria-label="graph"><path
         id="path27"
         style=""
         d="m -326.02801,129.951 q 8.904,0 16.218,-2.226 7.314,-2.226 12.561,-6.201 5.247,-3.975 8.109,-9.381 2.862,-5.406 2.862,-11.607 0,-2.225998 -0.318,-4.292998 -0.159,-2.226 -0.477,-4.134 -18.762,-3.18 -32.118,-2.703 -13.356,0.477 -21.783,3.339 -8.427,2.862 -12.402,7.631998 -3.975,4.77 -3.975,10.176 0,9.54 7.632,14.469 7.791,4.929 23.691,4.929 z m 14.151,-106.529998 q 7.155,0 12.561,-3.339 5.406,-3.339 9.063,-8.745 3.816,-5.4060005 5.724,-12.08400047 1.908,-6.83700003 2.067,-13.83299953 0,-11.925 -5.724,-18.285 -5.565,-6.36 -16.218,-6.36 -7.155,0 -12.561,3.18 -5.406,3.021 -9.063,8.268 -3.657,5.088 -5.565,11.766 -1.749,6.6779995 -1.749,13.8329995 0,12.2430005 5.565,18.9210005 5.565,6.678 15.9,6.678 z m 89.835,-80.772 -1.749,12.72 q -1.113,7.632 -7.791,10.176 l -16.695,4.293 q 0.795,3.18 1.113,6.837 0.477,3.498 0.477,7.314 0,7.3139995 -1.59,13.1969995 -1.59,5.724 -3.975,10.653 -2.226,4.9290005 -4.929,9.3810005 -2.703,4.293 -5.088,8.904 -2.226,4.452 -3.816,9.54 -1.59,4.929 -1.59,10.971 0,6.519 2.703,12.084 2.703,5.406 5.883,11.13 3.18,5.724 5.883,12.243 2.703,6.519 2.703,15.105 -0.159,12.083998 -5.565,22.895998 -5.406,10.971 -15.582,19.08 -10.017,8.268 -24.645,13.038 -14.628,4.77 -33.072,4.77 -14.946,0 -27.03,-3.18 -12.084,-3.021 -20.511,-8.586 -8.427,-5.565 -13.038,-13.197 -4.611,-7.473 -4.611,-16.536 0,-11.13 4.77,-19.397998 4.77,-8.268 12.72,-13.833 7.95,-5.724 18.285,-9.063 10.335,-3.339 21.465,-4.77 11.13,-1.431 22.26,-1.113 11.13,0.318 20.67,1.908 -1.431,-4.77 -1.431,-10.335 0,-9.222 5.088,-20.352 -6.042,4.134 -13.833,6.36 -7.632,2.226 -18.444,2.226 -9.222,0 -17.649,-3.021 -8.268,-3.021 -14.628,-9.222 -6.36,-6.201 -10.176,-15.423 -3.657,-9.381 -3.657,-21.7830005 0,-11.9249995 4.452,-23.2139995 4.452,-11.448 13.197,-20.352 8.745,-9.063 21.624,-14.469 12.879,-5.406 29.892,-5.406 9.063,0 17.172,2.067 8.268,2.067 15.105,6.36 z" /><path
         id="path29"
         style=""
         d="m -166.88391,-24.119998 q 6.201,-12.084 13.197,-20.67 7.155,-8.745 14.787,-13.515 7.632,-4.929 15.741,-5.724 8.109,-0.954 16.218,2.544 l -7.155,37.524 q -19.398,-8.109 -34.026,3.975 -14.469,12.0839995 -23.214,47.541 l -8.745,72.345 h -38.478 l 19.716,-163.293 h 20.034 q 6.201,0 9.54,3.021 3.498,3.021 3.498,9.699 z" /><path
         id="path31"
         style=""
         d="m -4.2318835,-37.475998 q -2.226,-0.159 -4.293,-0.159 -1.9080005,-0.159 -3.8160005,-0.159 -13.197,0 -24.486,6.042 -11.289,6.042 -19.557,16.377 -8.109,10.1759995 -12.879,23.8499995 -4.611,13.5150005 -4.611,28.6200005 0,17.172 5.406,25.122 5.406,7.95 14.787,7.95 6.519,0 12.72,-4.452 6.36,-4.611 11.925,-12.402 5.724,-7.95 10.335,-18.603 4.77,-10.653 8.268,-22.896 z m -10.8120005,103.35 q -10.812,16.695 -24.486,26.553 -13.515,9.857998 -29.574,9.857998 -9.222,0 -17.331,-3.656998 -7.95,-3.657 -13.991996,-10.812 -5.883,-7.314 -9.381,-18.126 -3.339,-10.971 -3.339,-25.599 0,-14.628 3.657,-28.461 3.657,-13.8330005 10.334996,-25.917 6.837,-12.243 16.377,-22.419 9.54,-10.176 21.306,-17.49 11.925,-7.314 25.599,-11.289 13.833,-4.134 29.0970005,-4.134 10.971,0 21.9419995,1.59 11.13,1.59 21.624,5.724 l -19.557,158.205 H -3.5958835 q -7.4730005,0 -10.1760005,-3.657 -2.544,-3.816 -2.544,-9.381 z" /><path
         id="path33"
         style=""
         d="m 96.410148,61.740002 q 5.406002,5.883 12.402002,8.268 6.996,2.385 13.674,2.385 10.494,0 19.08,-6.519 8.586,-6.519 14.787,-17.013 6.201,-10.494 9.54,-23.532 3.339,-13.197 3.339,-26.3940005 0,-17.1719995 -5.724,-25.4399995 -5.565,-8.427 -15.582,-8.427 -6.519,0 -13.197,4.452 -6.678,4.452 -12.879,12.243 -6.201,7.632 -11.607,18.12599953 -5.247,10.49400047 -9.063,22.57800047 z m 8.745002,-89.04 q 11.766,-17.649 26.553,-27.984 14.946,-10.494 31.641,-10.494 10.176,0 18.444,3.816 8.268,3.657 14.151,11.13 5.883,7.473 9.063,18.921 3.18,11.448 3.18,26.8709995 0,13.833 -2.862,27.1890005 -2.862,13.356 -8.109,25.281 -5.247,11.925 -12.561,21.942 -7.155,10.017 -16.059,17.331 -8.904,7.314 -19.08,11.448 -10.017,4.133998 -20.829,4.133998 -11.13,0 -20.034,-3.974998 -8.745002,-3.975 -15.423002,-10.812 l -8.109,65.666998 h -38.16 l 26.394,-216.557998 h 19.875 q 6.201,0 9.540002,3.021 3.498,3.021 3.498,9.699 z" /><path
         id="path35"
         style=""
         d="m 280.55202,-35.567998 q 11.925,-15.264 25.758,-22.737 13.992,-7.473 28.461,-7.473 10.335,0 18.444,4.134 8.268,4.134 13.515,12.084 5.247,7.791 7.314,19.398 2.226,11.448 0.318,26.2349995 l -12.402,103.8270005 h -39.114 l 12.243,-103.8270005 q 2.067,-15.8999995 -1.749,-22.8959995 -3.657,-6.996 -13.515,-6.996 -6.042,0 -12.561,3.498 -6.519,3.339 -12.561,9.699 -6.042,6.201 -11.289,15.1049995 -5.247,8.904 -8.904,19.8750005 l -10.335,85.542 h -39.273 l 28.62,-236.274002 h 39.273 z" /></g></g></svg>