<?xml version="1.0" encoding="UTF-8" standalone="no"?>
<!DOCTYPE svg PUBLIC "-//W3C//DTD SVG 1.1//EN"
 "http://www.w3.org/Graphics/SVG/1.1/DTD/svg11.dtd">
<!-- Generated by graphviz version 8.0.4 (20230421.1958)
 -->
<!-- Pages: 1 -->
<svg width="123pt" height="310pt"
 viewBox="0.00 0.00 123.02 309.50" xmlns="http://www.w3.org/2000/svg" xmlns:xlink="http://www.w3.org/1999/xlink">
<g id="graph0" class="graph" transform="scale(1 1) rotate(0) translate(4 305.5)">
<polygon fill="white" stroke="none" points="-4,4 -4,-305.5 119.02,-305.5 119.02,4 -4,4"/>
<!-- B -->
<g id="node1" class="node">
<title>B</title>
<ellipse fill="#deebf7" stroke="#9ecae1" cx="41.02" cy="-283.5" rx="27" ry="18"/>
<text text-anchor="middle" x="41.02" y="-278.45" font-family="Times,serif" font-size="14.00">B</text>
</g>
<!-- A -->
<g id="node2" class="node">
<title>A</title>
<ellipse fill="#deebf7" stroke="#9ecae1" cx="36.02" cy="-18" rx="27" ry="18"/>
<text text-anchor="middle" x="36.02" y="-12.95" font-family="Times,serif" font-size="14.00">A</text>
</g>
<!-- B&#45;&#45;A -->
<g id="edge1" class="edge">
<title>B&#45;&#45;A</title>
<path fill="none" stroke="#9ecae1" d="M30.1,-266.81C21.38,-253.26 9.85,-232.8 5.02,-213 -10.72,-148.38 15.51,-69.64 28.9,-35.79"/>
<text text-anchor="middle" x="5.4" y="-145.7" font-family="Times,serif" font-size="14.00">2</text>
</g>
<!-- C -->
<g id="node3" class="node">
<title>C</title>
<ellipse fill="#deebf7" stroke="#9ecae1" cx="41.02" cy="-195" rx="27" ry="18"/>
<text text-anchor="middle" x="41.02" y="-189.95" font-family="Times,serif" font-size="14.00">C</text>
</g>
<!-- B&#45;&#45;C -->
<g id="edge2" class="edge">
<title>B&#45;&#45;C</title>
<path fill="none" stroke="black" d="M41.02,-265.41C41.02,-250.34 41.02,-228.49 41.02,-213.35"/>
<text text-anchor="middle" x="44.4" y="-234.2" font-family="Times,serif" font-size="14.00">4</text>
</g>
<!-- D -->
<g id="node4" class="node">
<title>D</title>
<ellipse fill="#deebf7" stroke="#9ecae1" cx="88.02" cy="-106.5" rx="27" ry="18"/>
<text text-anchor="middle" x="88.02" y="-101.45" font-family="Times,serif" font-size="14.00">D</text>
</g>
<!-- B&#45;&#45;D -->
<g id="edge3" class="edge">
<title>B&#45;&#45;D</title>
<path fill="none" stroke="#9ecae1" d="M51.42,-266.66C59.82,-253.03 71.17,-232.53 77.02,-213 86.05,-182.83 87.93,-145.9 88.18,-124.69"/>
<text text-anchor="middle" x="87.4" y="-189.95" font-family="Times,serif" font-size="14.00">1</text>
</g>
<!-- C&#45;&#45;A -->
<g id="edge4" class="edge">
<title>C&#45;&#45;A</title>
<path fill="none" stroke="black" d="M40.52,-176.58C39.57,-143.04 37.47,-69.84 36.52,-36.35"/>
<text text-anchor="middle" x="42.4" y="-101.45" font-family="Times,serif" font-size="14.00">4</text>
</g>
<!-- C&#45;&#45;D -->
<g id="edge5" class="edge">
<title>C&#45;&#45;D</title>
<path fill="none" stroke="#9ecae1" d="M49.86,-177.73C58.26,-162.27 70.83,-139.14 79.22,-123.7"/>
<text text-anchor="middle" x="71.4" y="-145.7" font-family="Times,serif" font-size="14.00">3</text>
</g>
<!-- D&#45;&#45;A -->
<g id="edge6" class="edge">
<title>D&#45;&#45;A</title>
<path fill="none" stroke="black" d="M78.24,-89.23C68.94,-73.77 55.04,-50.64 45.76,-35.2"/>
<text text-anchor="middle" x="69.4" y="-57.2" font-family="Times,serif" font-size="14.00">2</text>
</g>
</g>
</svg>
