<?xml version="1.0" encoding="UTF-8" standalone="no"?>
<!DOCTYPE svg PUBLIC "-//W3C//DTD SVG 1.1//EN"
 "http://www.w3.org/Graphics/SVG/1.1/DTD/svg11.dtd">
<!-- Generated by graphviz version 6.0.1 (20220911.1526)
 -->
<!-- Pages: 1 -->
<svg width="215pt" height="296pt"
 viewBox="0.00 0.00 215.05 296.32" xmlns="http://www.w3.org/2000/svg" xmlns:xlink="http://www.w3.org/1999/xlink">
<g id="graph0" class="graph" transform="scale(1 1) rotate(0) translate(4 292.32)">
<polygon fill="white" stroke="none" points="-4,4 -4,-292.32 211.05,-292.32 211.05,4 -4,4"/>
<!-- 3 -->
<g id="node1" class="node">
<title>3</title>
<ellipse fill="#e5f5e0" stroke="#a1d99b" cx="70.43" cy="-157.34" rx="27" ry="18"/>
<text text-anchor="middle" x="70.43" y="-153.64" font-family="Times,serif" font-size="14.00">3</text>
</g>
<!-- 4 -->
<g id="node2" class="node">
<title>4</title>
<ellipse fill="#e5f5e0" stroke="#a1d99b" cx="27" cy="-221.95" rx="27" ry="18"/>
<text text-anchor="middle" x="27" y="-218.25" font-family="Times,serif" font-size="14.00">4</text>
</g>
<!-- 3&#45;&gt;4 -->
<g id="edge1" class="edge">
<title>3&#45;&gt;4</title>
<path fill="none" stroke="#a1d99b" d="M53.51,-171.6C47.95,-178.59 42.01,-187.19 37.08,-195.31"/>
<polygon fill="#a1d99b" stroke="#a1d99b" points="33.95,-193.74 32.03,-204.16 40.02,-197.21 33.95,-193.74"/>
</g>
<!-- 7 -->
<g id="node3" class="node">
<title>7</title>
<ellipse fill="#fee0d2" stroke="#fc9272" cx="137.72" cy="-207.34" rx="27" ry="18"/>
<text text-anchor="middle" x="137.72" y="-203.64" font-family="Times,serif" font-size="14.00">7</text>
</g>
<!-- 3&#45;&gt;7 -->
<g id="edge2" class="edge">
<title>3&#45;&gt;7</title>
<path fill="none" stroke="black" d="M88.46,-170.74C95.55,-176.01 103.83,-182.16 111.56,-187.9"/>
<polygon fill="black" stroke="black" points="109.53,-190.75 119.64,-193.91 113.7,-185.13 109.53,-190.75"/>
</g>
<!-- 4&#45;&gt;3 -->
<g id="edge3" class="edge">
<title>4&#45;&gt;3</title>
<path fill="none" stroke="#a1d99b" d="M43.92,-207.7C49.48,-200.71 55.42,-192.1 60.35,-183.98"/>
<polygon fill="#a1d99b" stroke="#a1d99b" points="63.48,-185.55 65.4,-175.13 57.4,-182.08 63.48,-185.55"/>
</g>
<!-- 8 -->
<g id="node4" class="node">
<title>8</title>
<ellipse fill="#e5f5e0" stroke="#a1d99b" cx="91.05" cy="-270.32" rx="27" ry="18"/>
<text text-anchor="middle" x="91.05" y="-266.62" font-family="Times,serif" font-size="14.00">8</text>
</g>
<!-- 4&#45;&gt;8 -->
<g id="edge4" class="edge">
<title>4&#45;&gt;8</title>
<path fill="none" stroke="#a1d99b" d="M38.96,-238.35C44.8,-243.67 52.08,-249.52 59.35,-254.77"/>
<polygon fill="#a1d99b" stroke="#a1d99b" points="57.56,-257.79 67.78,-260.6 61.54,-252.03 57.56,-257.79"/>
</g>
<!-- 6 -->
<g id="node5" class="node">
<title>6</title>
<ellipse fill="#fee0d2" stroke="#fc9272" cx="180.05" cy="-140.7" rx="27" ry="18"/>
<text text-anchor="middle" x="180.05" y="-137" font-family="Times,serif" font-size="14.00">6</text>
</g>
<!-- 7&#45;&gt;6 -->
<g id="edge8" class="edge">
<title>7&#45;&gt;6</title>
<path fill="none" stroke="#fc9272" d="M154.18,-192.73C159.78,-185.32 165.79,-176.12 170.69,-167.51"/>
<polygon fill="#fc9272" stroke="#fc9272" points="173.87,-168.99 175.51,-158.52 167.7,-165.68 173.87,-168.99"/>
</g>
<!-- 8&#45;&gt;4 -->
<g id="edge5" class="edge">
<title>8&#45;&gt;4</title>
<path fill="none" stroke="#a1d99b" d="M79.08,-253.92C73.24,-248.6 65.96,-242.76 58.7,-237.5"/>
<polygon fill="#a1d99b" stroke="#a1d99b" points="60.49,-234.48 50.27,-231.67 56.5,-240.24 60.49,-234.48"/>
</g>
<!-- 8&#45;&gt;7 -->
<g id="edge6" class="edge">
<title>8&#45;&gt;7</title>
<path fill="none" stroke="black" d="M103.07,-254.1C108.04,-247.39 113.91,-239.47 119.4,-232.07"/>
<polygon fill="black" stroke="black" points="122.44,-233.84 125.58,-223.72 116.81,-229.67 122.44,-233.84"/>
</g>
<!-- 6&#45;&gt;7 -->
<g id="edge7" class="edge">
<title>6&#45;&gt;7</title>
<path fill="none" stroke="#fc9272" d="M163.6,-155.31C158,-162.72 151.99,-171.92 147.09,-180.52"/>
<polygon fill="#fc9272" stroke="#fc9272" points="143.91,-179.05 142.27,-189.52 150.08,-182.36 143.91,-179.05"/>
</g>
<!-- 1 -->
<g id="node6" class="node">
<title>1</title>
<ellipse fill="#deebf7" stroke="#9ecae1" cx="123.23" cy="-18" rx="27" ry="18"/>
<text text-anchor="middle" x="123.23" y="-14.3" font-family="Times,serif" font-size="14.00">1</text>
</g>
<!-- 2 -->
<g id="node7" class="node">
<title>2</title>
<ellipse fill="#deebf7" stroke="#9ecae1" cx="114.34" cy="-92.67" rx="27" ry="18"/>
<text text-anchor="middle" x="114.34" y="-88.97" font-family="Times,serif" font-size="14.00">2</text>
</g>
<!-- 1&#45;&gt;2 -->
<g id="edge9" class="edge">
<title>1&#45;&gt;2</title>
<path fill="none" stroke="#9ecae1" d="M121.08,-36.07C120.07,-44.54 118.85,-54.83 117.72,-64.3"/>
<polygon fill="#9ecae1" stroke="#9ecae1" points="114.21,-64.16 116.51,-74.5 121.16,-64.98 114.21,-64.16"/>
</g>
<!-- 2&#45;&gt;3 -->
<g id="edge12" class="edge">
<title>2&#45;&gt;3</title>
<path fill="none" stroke="black" d="M103.03,-109.32C98.36,-116.21 92.83,-124.35 87.67,-131.95"/>
<polygon fill="black" stroke="black" points="84.57,-130.28 81.85,-140.52 90.37,-134.21 84.57,-130.28"/>
</g>
<!-- 2&#45;&gt;6 -->
<g id="edge11" class="edge">
<title>2&#45;&gt;6</title>
<path fill="none" stroke="black" d="M132.65,-106.05C139.06,-110.73 146.39,-116.09 153.34,-121.17"/>
<polygon fill="black" stroke="black" points="151.71,-124.31 161.85,-127.39 155.84,-118.66 151.71,-124.31"/>
</g>
<!-- 5 -->
<g id="node8" class="node">
<title>5</title>
<ellipse fill="#deebf7" stroke="#9ecae1" cx="179.42" cy="-67.11" rx="27" ry="18"/>
<text text-anchor="middle" x="179.42" y="-63.41" font-family="Times,serif" font-size="14.00">5</text>
</g>
<!-- 2&#45;&gt;5 -->
<g id="edge10" class="edge">
<title>2&#45;&gt;5</title>
<path fill="none" stroke="#9ecae1" d="M137.84,-83.44C140.57,-82.37 143.39,-81.26 146.22,-80.15"/>
<polygon fill="#9ecae1" stroke="#9ecae1" points="147.71,-83.32 155.74,-76.41 145.15,-76.8 147.71,-83.32"/>
</g>
<!-- 5&#45;&gt;6 -->
<g id="edge13" class="edge">
<title>5&#45;&gt;6</title>
<path fill="none" stroke="black" d="M179.57,-85.3C179.64,-93.43 179.73,-103.22 179.81,-112.29"/>
<polygon fill="black" stroke="black" points="176.31,-112.49 179.9,-122.46 183.31,-112.43 176.31,-112.49"/>
</g>
<!-- 5&#45;&gt;1 -->
<g id="edge14" class="edge">
<title>5&#45;&gt;1</title>
<path fill="none" stroke="#9ecae1" d="M162.86,-52.64C158.1,-48.48 152.81,-43.85 147.68,-39.37"/>
<polygon fill="#9ecae1" stroke="#9ecae1" points="149.69,-36.48 139.86,-32.53 145.09,-41.75 149.69,-36.48"/>
</g>
</g>
</svg>
