<?xml version="1.0" encoding="UTF-8" standalone="no"?>
<!DOCTYPE svg PUBLIC "-//W3C//DTD SVG 1.1//EN"
 "http://www.w3.org/Graphics/SVG/1.1/DTD/svg11.dtd">
<!-- Generated by graphviz version 6.0.1 (20220911.1526)
 -->
<!-- Pages: 1 -->
<svg width="177pt" height="192pt"
 viewBox="0.00 0.00 176.59 192.02" xmlns="http://www.w3.org/2000/svg" xmlns:xlink="http://www.w3.org/1999/xlink">
<g id="graph0" class="graph" transform="scale(1 1) rotate(0) translate(4 188.02)">
<polygon fill="white" stroke="none" points="-4,4 -4,-188.02 172.59,-188.02 172.59,4 -4,4"/>
<!-- 5 -->
<g id="node1" class="node">
<title>5</title>
<ellipse fill="#fee0d2" stroke="#fc9272" cx="27" cy="-44.81" rx="27" ry="18"/>
<text text-anchor="middle" x="27" y="-41.11" font-family="Times,serif" font-size="14.00">5</text>
</g>
<!-- 2 -->
<g id="node2" class="node">
<title>2</title>
<ellipse fill="#e5f5e0" stroke="#a1d99b" cx="84.57" cy="-92.03" rx="27" ry="18"/>
<text text-anchor="middle" x="84.57" y="-88.33" font-family="Times,serif" font-size="14.00">2</text>
</g>
<!-- 5&#45;&#45;2 -->
<g id="edge1" class="edge">
<title>5&#45;&#45;2</title>
<path fill="none" stroke="black" d="M44.27,-58.97C51.56,-64.95 60.02,-71.89 67.31,-77.87"/>
</g>
<!-- 3 -->
<g id="node3" class="node">
<title>3</title>
<ellipse fill="#efedf5" stroke="#bcbddc" cx="91.97" cy="-18" rx="27" ry="18"/>
<text text-anchor="middle" x="91.97" y="-14.3" font-family="Times,serif" font-size="14.00">3</text>
</g>
<!-- 5&#45;&#45;3 -->
<g id="edge2" class="edge">
<title>5&#45;&#45;3</title>
<path fill="none" stroke="black" d="M50.09,-35.28C56.22,-32.75 62.83,-30.02 68.96,-27.5"/>
</g>
<!-- 2&#45;&#45;3 -->
<g id="edge5" class="edge">
<title>2&#45;&#45;3</title>
<path fill="none" stroke="black" d="M86.4,-73.73C87.54,-62.25 89.02,-47.52 90.16,-36.09"/>
</g>
<!-- 4 -->
<g id="node5" class="node">
<title>4</title>
<ellipse fill="#fff7bc" stroke="#fec44f" cx="141.59" cy="-139.79" rx="27" ry="18"/>
<text text-anchor="middle" x="141.59" y="-136.09" font-family="Times,serif" font-size="14.00">4</text>
</g>
<!-- 2&#45;&#45;4 -->
<g id="edge6" class="edge">
<title>2&#45;&#45;4</title>
<path fill="none" stroke="black" d="M101.68,-106.36C108.89,-112.4 117.28,-119.43 124.49,-125.47"/>
</g>
<!-- 1 -->
<g id="node4" class="node">
<title>1</title>
<ellipse fill="#deebf7" stroke="#9ecae1" cx="76.38" cy="-166.02" rx="27" ry="18"/>
<text text-anchor="middle" x="76.38" y="-162.32" font-family="Times,serif" font-size="14.00">1</text>
</g>
<!-- 1&#45;&#45;2 -->
<g id="edge3" class="edge">
<title>1&#45;&#45;2</title>
<path fill="none" stroke="black" d="M78.4,-147.73C79.67,-136.26 81.3,-121.54 82.57,-110.11"/>
</g>
<!-- 1&#45;&#45;4 -->
<g id="edge4" class="edge">
<title>1&#45;&#45;4</title>
<path fill="none" stroke="black" d="M99.56,-156.7C105.56,-154.28 112.03,-151.68 118.05,-149.26"/>
</g>
</g>
</svg>
