<?xml version="1.0" encoding="UTF-8" standalone="no"?>
<!DOCTYPE svg PUBLIC "-//W3C//DTD SVG 1.1//EN"
 "http://www.w3.org/Graphics/SVG/1.1/DTD/svg11.dtd">
<!-- Generated by graphviz version 6.0.1 (20220911.1526)
 -->
<!-- Pages: 1 -->
<svg width="134pt" height="260pt"
 viewBox="0.00 0.00 134.00 260.00" xmlns="http://www.w3.org/2000/svg" xmlns:xlink="http://www.w3.org/1999/xlink">
<g id="graph0" class="graph" transform="scale(1 1) rotate(0) translate(4 256)">
<polygon fill="white" stroke="none" points="-4,4 -4,-256 130,-256 130,4 -4,4"/>
<!-- A -->
<g id="node1" class="node">
<title>A</title>
<ellipse fill="#deebf7" stroke="#9ecae1" cx="63" cy="-234" rx="27" ry="18"/>
<text text-anchor="middle" x="63" y="-230.3" font-family="Times,serif" font-size="14.00">A</text>
</g>
<!-- B -->
<g id="node2" class="node">
<title>B</title>
<ellipse fill="#e5f5e0" stroke="#a1d99b" cx="27" cy="-162" rx="27" ry="18"/>
<text text-anchor="middle" x="27" y="-158.3" font-family="Times,serif" font-size="14.00">B</text>
</g>
<!-- A&#45;&gt;B -->
<g id="edge1" class="edge">
<title>A&#45;&gt;B</title>
<path fill="none" stroke="black" d="M54.65,-216.76C50.29,-208.28 44.85,-197.71 39.96,-188.2"/>
<polygon fill="black" stroke="black" points="42.99,-186.44 35.3,-179.15 36.77,-189.64 42.99,-186.44"/>
</g>
<!-- C -->
<g id="node3" class="node">
<title>C</title>
<ellipse fill="#efedf5" stroke="#bcbddc" cx="99" cy="-162" rx="27" ry="18"/>
<text text-anchor="middle" x="99" y="-158.3" font-family="Times,serif" font-size="14.00">C</text>
</g>
<!-- A&#45;&gt;C -->
<g id="edge2" class="edge">
<title>A&#45;&gt;C</title>
<path fill="none" stroke="black" d="M71.35,-216.76C75.71,-208.28 81.15,-197.71 86.04,-188.2"/>
<polygon fill="black" stroke="black" points="89.23,-189.64 90.7,-179.15 83.01,-186.44 89.23,-189.64"/>
</g>
<!-- D -->
<g id="node4" class="node">
<title>D</title>
<ellipse fill="#fff7bc" stroke="#fec44f" cx="63" cy="-90" rx="27" ry="18"/>
<text text-anchor="middle" x="63" y="-86.3" font-family="Times,serif" font-size="14.00">D</text>
</g>
<!-- B&#45;&gt;D -->
<g id="edge3" class="edge">
<title>B&#45;&gt;D</title>
<path fill="none" stroke="black" d="M35.35,-144.76C39.71,-136.28 45.15,-125.71 50.04,-116.2"/>
<polygon fill="black" stroke="black" points="53.23,-117.64 54.7,-107.15 47.01,-114.44 53.23,-117.64"/>
</g>
<!-- C&#45;&gt;D -->
<g id="edge4" class="edge">
<title>C&#45;&gt;D</title>
<path fill="none" stroke="black" d="M90.65,-144.76C86.29,-136.28 80.85,-125.71 75.96,-116.2"/>
<polygon fill="black" stroke="black" points="78.99,-114.44 71.3,-107.15 72.77,-117.64 78.99,-114.44"/>
</g>
<!-- E -->
<g id="node5" class="node">
<title>E</title>
<ellipse fill="#fee0d2" stroke="#fc9272" cx="63" cy="-18" rx="27" ry="18"/>
<text text-anchor="middle" x="63" y="-14.3" font-family="Times,serif" font-size="14.00">E</text>
</g>
<!-- D&#45;&gt;E -->
<g id="edge5" class="edge">
<title>D&#45;&gt;E</title>
<path fill="none" stroke="black" d="M63,-71.7C63,-63.98 63,-54.71 63,-46.11"/>
<polygon fill="black" stroke="black" points="66.5,-46.1 63,-36.1 59.5,-46.1 66.5,-46.1"/>
</g>
</g>
</svg>
