<?xml version="1.0" encoding="UTF-8" standalone="no"?>
<!DOCTYPE svg PUBLIC "-//W3C//DTD SVG 1.1//EN"
 "http://www.w3.org/Graphics/SVG/1.1/DTD/svg11.dtd">
<!-- Generated by graphviz version 6.0.1 (20220911.1526)
 -->
<!-- Pages: 1 -->
<svg width="181pt" height="260pt"
 viewBox="0.00 0.00 180.75 260.00" xmlns="http://www.w3.org/2000/svg" xmlns:xlink="http://www.w3.org/1999/xlink">
<g id="graph0" class="graph" transform="scale(1 1) rotate(0) translate(4 256)">
<polygon fill="white" stroke="none" points="-4,4 -4,-256 176.75,-256 176.75,4 -4,4"/>
<!-- D -->
<g id="node1" class="node">
<title>D</title>
<ellipse fill="#fff7bc" stroke="#fec44f" cx="27" cy="-90" rx="27" ry="18"/>
<text text-anchor="middle" x="27" y="-86.3" font-family="Times,serif" font-size="14.00">D</text>
</g>
<!-- E -->
<g id="node2" class="node">
<title>E</title>
<ellipse fill="#fee0d2" stroke="#fc9272" cx="54" cy="-18" rx="27" ry="18"/>
<text text-anchor="middle" x="54" y="-14.3" font-family="Times,serif" font-size="14.00">E</text>
</g>
<!-- D&#45;&gt;E -->
<g id="edge1" class="edge">
<title>D&#45;&gt;E</title>
<path fill="none" stroke="black" d="M33.4,-72.41C36.51,-64.34 40.33,-54.43 43.83,-45.35"/>
<polygon fill="black" stroke="black" points="47.13,-46.55 47.46,-35.96 40.6,-44.03 47.13,-46.55"/>
</g>
<!-- A -->
<g id="node3" class="node">
<title>A</title>
<ellipse fill="#deebf7" stroke="#9ecae1" cx="27" cy="-234" rx="27" ry="18"/>
<text text-anchor="middle" x="27" y="-230.3" font-family="Times,serif" font-size="14.00">A</text>
</g>
<!-- A&#45;&gt;D -->
<g id="edge4" class="edge">
<title>A&#45;&gt;D</title>
<path fill="none" stroke="black" d="M23.75,-215.89C21.95,-205.54 19.91,-192.06 19,-180 17.8,-164.04 17.8,-159.96 19,-144 19.64,-135.52 20.84,-126.34 22.12,-118.04"/>
<polygon fill="black" stroke="black" points="25.58,-118.55 23.75,-108.11 18.68,-117.41 25.58,-118.55"/>
</g>
<!-- A&#45;&gt;E -->
<g id="edge5" class="edge">
<title>A&#45;&gt;E</title>
<path fill="none" stroke="black" d="M53.94,-231.18C86.08,-227.4 138.55,-215.77 163,-180 198.55,-127.99 124.33,-66.24 81.5,-36.6"/>
<polygon fill="black" stroke="black" points="83.38,-33.65 73.14,-30.94 79.46,-39.44 83.38,-33.65"/>
</g>
<!-- B -->
<g id="node4" class="node">
<title>B</title>
<ellipse fill="#e5f5e0" stroke="#a1d99b" cx="55" cy="-162" rx="27" ry="18"/>
<text text-anchor="middle" x="55" y="-158.3" font-family="Times,serif" font-size="14.00">B</text>
</g>
<!-- A&#45;&gt;B -->
<g id="edge2" class="edge">
<title>A&#45;&gt;B</title>
<path fill="none" stroke="black" d="M33.64,-216.41C36.91,-208.22 40.94,-198.14 44.62,-188.95"/>
<polygon fill="black" stroke="black" points="47.95,-190.05 48.41,-179.47 41.45,-187.45 47.95,-190.05"/>
</g>
<!-- C -->
<g id="node5" class="node">
<title>C</title>
<ellipse fill="#efedf5" stroke="#bcbddc" cx="127" cy="-162" rx="27" ry="18"/>
<text text-anchor="middle" x="127" y="-158.3" font-family="Times,serif" font-size="14.00">C</text>
</g>
<!-- A&#45;&gt;C -->
<g id="edge3" class="edge">
<title>A&#45;&gt;C</title>
<path fill="none" stroke="black" d="M44.88,-220.49C60.28,-209.7 82.74,-193.98 100.28,-181.7"/>
<polygon fill="black" stroke="black" points="102.75,-184.24 108.94,-175.64 98.74,-178.51 102.75,-184.24"/>
</g>
<!-- B&#45;&gt;D -->
<g id="edge6" class="edge">
<title>B&#45;&gt;D</title>
<path fill="none" stroke="black" d="M48.36,-144.41C45.09,-136.22 41.06,-126.14 37.38,-116.95"/>
<polygon fill="black" stroke="black" points="40.55,-115.45 33.59,-107.47 34.05,-118.05 40.55,-115.45"/>
</g>
<!-- C&#45;&gt;D -->
<g id="edge7" class="edge">
<title>C&#45;&gt;D</title>
<path fill="none" stroke="black" d="M109.12,-148.49C93.72,-137.7 71.26,-121.98 53.72,-109.7"/>
<polygon fill="black" stroke="black" points="55.26,-106.51 45.06,-103.64 51.25,-112.24 55.26,-106.51"/>
</g>
<!-- C&#45;&gt;E -->
<g id="edge8" class="edge">
<title>C&#45;&gt;E</title>
<path fill="none" stroke="black" d="M118.63,-144.71C106.04,-120.23 82.14,-73.74 67.2,-44.67"/>
<polygon fill="black" stroke="black" points="70.19,-42.83 62.5,-35.54 63.96,-46.03 70.19,-42.83"/>
</g>
</g>
</svg>
